<mxfile host="65bd71144e">
    <diagram id="t3JdGu8UbjC61O_lBwdi" name="Page-1">
        <mxGraphModel dx="746" dy="427" grid="1" gridSize="10" guides="1" tooltips="1" connect="1" arrows="1" fold="1" page="1" pageScale="1" pageWidth="1200" pageHeight="1920" math="0" shadow="0">
            <root>
                <mxCell id="0"/>
                <mxCell id="1" parent="0"/>
                <mxCell id="4" style="edgeStyle=none;html=1;" edge="1" parent="1" source="2">
                    <mxGeometry relative="1" as="geometry">
                        <mxPoint x="290" y="150" as="targetPoint"/>
                    </mxGeometry>
                </mxCell>
                <mxCell id="2" value="1" style="ellipse;whiteSpace=wrap;html=1;aspect=fixed;fontStyle=0" vertex="1" parent="1">
                    <mxGeometry x="130" y="110" width="80" height="80" as="geometry"/>
                </mxCell>
                <mxCell id="6" style="edgeStyle=none;html=1;" edge="1" parent="1" source="5">
                    <mxGeometry relative="1" as="geometry">
                        <mxPoint x="450" y="150" as="targetPoint"/>
                    </mxGeometry>
                </mxCell>
                <mxCell id="5" value="2" style="ellipse;whiteSpace=wrap;html=1;aspect=fixed;fontStyle=0" vertex="1" parent="1">
                    <mxGeometry x="290" y="110" width="80" height="80" as="geometry"/>
                </mxCell>
                <mxCell id="8" style="edgeStyle=none;html=1;exitX=1;exitY=0.5;exitDx=0;exitDy=0;" edge="1" parent="1" source="7">
                    <mxGeometry relative="1" as="geometry">
                        <mxPoint x="120" y="160" as="targetPoint"/>
                        <Array as="points">
                            <mxPoint x="610" y="140"/>
                            <mxPoint x="510" y="310"/>
                            <mxPoint x="240" y="340"/>
                            <mxPoint x="80" y="310"/>
                        </Array>
                    </mxGeometry>
                </mxCell>
                <mxCell id="7" value="3" style="ellipse;whiteSpace=wrap;html=1;aspect=fixed;fontStyle=0" vertex="1" parent="1">
                    <mxGeometry x="450" y="110" width="80" height="80" as="geometry"/>
                </mxCell>
                <mxCell id="10" value="head" style="text;html=1;align=center;verticalAlign=middle;resizable=0;points=[];autosize=1;strokeColor=none;fillColor=none;" vertex="1" parent="1">
                    <mxGeometry x="125" y="65" width="50" height="30" as="geometry"/>
                </mxCell>
                <mxCell id="11" value="&lt;br&gt;temp&lt;br&gt;" style="text;html=1;align=center;verticalAlign=middle;resizable=0;points=[];autosize=1;strokeColor=none;fillColor=none;" vertex="1" parent="1">
                    <mxGeometry x="465" y="70" width="50" height="40" as="geometry"/>
                </mxCell>
            </root>
        </mxGraphModel>
    </diagram>
</mxfile>